<?xml version="1.0" standalone="no"?>
<!DOCTYPE svg PUBLIC "-//W3C//DTD SVG 20010904//EN"
 "http://www.w3.org/TR/2001/REC-SVG-20010904/DTD/svg10.dtd">
<svg version="1.0" xmlns="http://www.w3.org/2000/svg"
 width="1256.000000pt" height="380.000000pt" viewBox="0 0 1256.000000 380.000000"
 preserveAspectRatio="xMidYMid meet">
<metadata>
Created by potrace 1.15, written by Peter Selinger 2001-2017
</metadata>
<g transform="translate(0.000000,380.000000) scale(0.100000,-0.100000)"
fill="#000000" stroke="none">
<path d="M549 3448 c-59 -5 -128 -27 -199 -61 -16 -8 -28 -27 -36 -54 -20 -66
-39 -341 -35 -495 1 -14 16 -44 36 -68 19 -22 42 -66 52 -96 15 -47 15 -61 4
-102 -7 -26 -23 -58 -35 -72 -13 -14 -33 -44 -45 -67 -11 -23 -25 -44 -30 -47
-8 -5 -10 -46 -16 -296 -1 -47 -5 -216 -10 -376 l-8 -290 36 -47 c46 -60 55
-99 31 -135 -53 -78 -56 -95 -60 -331 l-3 -224 74 -77 c41 -42 75 -80 75 -84
0 -4 9 -20 20 -36 26 -36 97 -47 375 -59 116 -5 218 -12 227 -16 10 -4 40 4
74 20 l57 27 65 -17 c35 -9 77 -22 92 -30 26 -13 79 -22 195 -30 28 -2 63 -9
79 -15 62 -23 132 -23 193 1 85 33 228 33 298 0 50 -23 107 -30 280 -34 58 -2
81 3 133 26 83 38 162 41 212 10 93 -59 98 -60 263 -67 93 -4 166 -11 177 -18
14 -9 25 -9 42 -1 13 6 35 14 50 17 22 5 28 13 33 44 3 20 15 60 25 87 27 70
26 162 -4 246 -17 49 -22 80 -18 122 5 59 -10 91 -61 126 -28 20 -199 40 -343
41 l-110 0 -54 -40 c-29 -22 -58 -40 -64 -40 -21 0 -172 57 -201 76 -23 15
-49 19 -120 21 -115 2 -172 7 -342 32 -76 12 -168 23 -204 27 l-67 5 -4 37
c-3 20 -1 55 3 77 5 22 8 90 9 150 0 61 4 146 10 190 5 44 16 184 24 310 9
127 18 264 21 305 3 41 7 278 9 526 3 248 7 462 11 475 9 38 -44 103 -113 135
-71 33 -98 57 -113 101 -6 21 -22 39 -41 49 -37 19 -264 37 -355 28 -35 -3
-107 -1 -160 5 -117 14 -343 19 -434 9z m172 -164 c11 -7 12 -64 0 -82 -9 -15
-96 -43 -105 -35 -12 13 -44 -30 -50 -66 -6 -41 -40 -91 -61 -91 -31 0 -49 53
-50 142 0 77 3 90 22 110 14 13 42 25 70 29 49 8 158 3 174 -7z m2334 -2504
c13 -21 8 -72 -9 -88 -14 -14 -40 -17 -154 -19 -135 -2 -137 -1 -164 24 -29
28 -26 53 9 68 44 19 308 31 318 15z"/>
<path d="M4205 3403 c-11 -3 -45 -20 -75 -37 -30 -18 -68 -40 -85 -49 -16 -10
-47 -25 -68 -33 -38 -16 -55 -48 -43 -79 8 -21 28 -19 67 10 48 34 148 85 168
85 9 0 34 9 56 20 22 11 47 20 56 20 46 0 66 31 32 48 -25 13 -84 21 -108 15z"/>
<path d="M10409 3383 c-86 -5 -106 -24 -121 -119 -15 -95 -14 -121 8 -145 l19
-21 -46 7 c-26 4 -49 3 -52 -2 -3 -5 6 -26 20 -46 l26 -36 -51 -58 c-43 -50
-112 -116 -199 -193 -13 -10 -23 -24 -23 -30 0 -19 56 -11 76 11 10 12 51 43
89 70 39 26 101 77 140 112 l69 64 -13 43 c-7 26 -9 45 -3 49 5 3 12 30 15 58
3 29 15 73 26 97 18 41 24 46 73 60 29 8 64 14 78 13 18 -2 26 3 28 18 2 16
-6 24 -35 34 -49 18 -47 17 -124 14z"/>
<path d="M8380 3320 c0 -22 50 -50 88 -50 12 0 31 -19 50 -51 38 -61 46 -86
46 -163 1 -69 14 -80 50 -41 46 50 57 165 22 234 -15 28 -90 76 -105 67 -5 -4
-20 -2 -33 3 -12 4 -44 11 -70 15 -44 7 -48 6 -48 -14z"/>
<path d="M1834 3296 c-3 -8 4 -27 15 -43 24 -32 30 -129 12 -176 -6 -16 -11
-75 -11 -131 0 -107 5 -121 45 -128 17 -3 21 7 32 97 7 55 11 109 9 119 -3 11
1 43 9 72 16 62 8 138 -19 178 -12 20 -25 26 -52 26 -21 0 -37 -6 -40 -14z"/>
<path d="M4620 3288 c-19 -6 -59 -10 -88 -9 -31 1 -106 -11 -175 -28 -67 -16
-138 -32 -158 -36 -20 -3 -49 -17 -65 -30 -16 -14 -35 -25 -42 -25 -22 0 -109
-48 -146 -80 -18 -17 -53 -62 -75 -100 -34 -56 -53 -76 -94 -100 -29 -16 -63
-30 -77 -30 -59 0 -137 -101 -216 -281 -39 -88 -63 -179 -64 -240 0 -24 -10
-50 -31 -79 -73 -101 -90 -215 -60 -415 19 -129 24 -148 71 -242 34 -67 62
-110 84 -127 19 -14 36 -36 40 -50 21 -84 252 -426 287 -426 6 0 33 -16 59
-35 26 -19 53 -35 60 -35 7 0 36 -13 64 -29 74 -43 127 -53 187 -35 49 15 50
15 117 -18 56 -27 69 -39 78 -67 15 -46 70 -71 194 -87 19 -3 51 -9 70 -14 19
-5 76 -11 125 -15 50 -3 128 -13 175 -22 94 -18 232 -21 450 -9 148 8 225 27
356 87 23 11 45 19 50 19 21 0 239 120 334 183 204 136 279 206 362 338 57 90
128 235 128 262 0 12 13 61 28 109 33 102 30 121 -27 183 -23 25 -42 53 -42
62 -5 60 7 106 48 186 26 49 46 101 45 115 0 15 -10 50 -22 77 -12 28 -26 74
-30 102 -14 85 -96 256 -154 321 -88 98 -169 172 -222 203 -29 16 -57 36 -64
44 -7 8 -38 29 -69 47 -31 17 -69 42 -86 54 -46 34 -120 68 -235 109 -58 20
-109 41 -115 46 -5 5 -21 9 -35 9 -14 0 -66 12 -115 26 -50 14 -119 30 -155
35 -221 30 -393 46 -520 48 -80 1 -156 3 -170 5 -14 2 -41 -1 -60 -6z m-470
-285 c0 -21 -257 -273 -279 -273 -65 1 -51 59 25 102 35 19 69 49 90 79 33 45
83 90 114 102 29 11 50 7 50 -10z m830 -131 c27 -33 64 -50 120 -57 30 -3 80
-11 110 -16 39 -8 68 -7 100 1 102 26 106 26 147 -20 22 -24 63 -54 98 -70
111 -50 120 -75 120 -320 1 -91 5 -202 9 -247 8 -75 7 -87 -16 -145 -26 -64
-27 -75 -48 -383 -9 -128 -31 -264 -52 -317 -13 -35 -89 -105 -132 -123 -18
-8 -80 -24 -137 -35 -90 -19 -123 -21 -244 -15 -183 9 -204 12 -480 68 -85 17
-154 51 -216 106 l-47 41 -6 147 c-3 82 -9 189 -12 239 -7 101 2 145 43 205
18 27 26 58 33 120 5 46 18 134 30 194 11 61 23 165 27 233 6 115 9 128 42
195 31 62 42 75 81 94 56 27 127 43 189 43 42 0 56 6 107 46 49 38 64 44 89
40 17 -3 37 -14 45 -24z m1491 -539 c32 -85 30 -138 -6 -190 -48 -67 -49 -65
-45 112 2 151 15 170 51 78z m-2313 -965 c5 -72 23 -123 64 -179 23 -30 18
-63 -12 -79 -26 -14 -84 21 -101 62 -16 40 -12 233 7 281 6 16 8 17 22 4 9
-10 16 -43 20 -89z"/>
<path d="M5315 2660 c-19 -31 26 -80 75 -80 50 0 80 -41 80 -109 0 -44 15 -92
33 -103 20 -12 54 -9 67 7 28 34 8 151 -39 220 -22 33 -35 42 -76 51 -90 20
-134 24 -140 14z"/>
<path d="M7428 3249 c-50 -13 -85 -46 -96 -91 -6 -24 -19 -107 -29 -185 l-17
-142 24 -73 c19 -59 25 -99 28 -205 5 -180 -8 -271 -58 -388 -34 -79 -40 -105
-40 -162 0 -37 -4 -83 -10 -102 -5 -18 -10 -113 -10 -210 -1 -140 2 -184 14
-213 24 -55 21 -159 -4 -191 -12 -14 -30 -47 -41 -73 -42 -93 -3 -295 66 -340
32 -21 204 -44 360 -49 73 -2 163 -11 205 -20 64 -15 79 -16 110 -4 20 8 76
14 135 14 94 0 103 2 150 31 82 50 89 78 109 434 16 269 29 357 55 365 9 3 62
41 116 85 l100 80 27 -32 c15 -18 51 -76 80 -128 38 -68 74 -115 125 -166 68
-67 73 -75 73 -114 0 -39 5 -46 85 -124 80 -76 85 -84 85 -123 0 -32 7 -50 33
-81 42 -51 96 -127 124 -176 40 -67 82 -113 118 -131 32 -15 164 -33 380 -51
60 -6 77 -3 113 15 51 26 82 58 82 85 0 12 -9 39 -19 61 -16 35 -31 47 -110
90 -116 61 -135 83 -127 149 4 40 0 62 -25 123 -17 41 -50 97 -73 125 -22 28
-67 83 -98 122 -32 39 -67 90 -77 113 -26 55 -191 313 -243 378 -53 68 -120
183 -113 195 3 5 36 32 73 59 37 28 73 59 79 70 7 11 39 39 70 62 100 72 161
137 168 180 10 58 59 90 142 94 58 3 71 8 126 46 33 24 81 63 107 88 25 25 72
67 105 94 109 86 190 160 193 177 2 9 -6 25 -18 35 -18 16 -56 20 -321 36
-229 13 -309 14 -337 5 -88 -26 -314 -229 -332 -297 -8 -30 -20 -44 -52 -61
-22 -13 -50 -29 -62 -35 -11 -7 -40 -13 -63 -13 -36 0 -51 -7 -103 -52 -34
-29 -82 -70 -108 -91 -26 -20 -76 -64 -112 -97 -36 -33 -92 -80 -125 -105
l-60 -44 -3 59 c-2 32 7 125 18 207 12 85 23 227 26 335 5 174 4 189 -15 227
-24 47 -50 55 -172 55 -65 0 -86 -5 -143 -33 -57 -27 -74 -31 -109 -26 -60 10
-90 28 -135 81 l-40 47 -118 3 c-66 2 -150 5 -189 7 -38 2 -82 0 -97 -4z m202
-141 c0 -22 -78 -180 -94 -190 -25 -17 -56 -8 -70 21 -27 51 -29 102 -6 139
24 40 49 50 118 50 44 -1 52 -3 52 -20z m944 -907 c16 -25 -187 -201 -232
-201 -30 0 -48 38 -35 77 8 24 17 29 56 35 48 7 85 27 126 72 24 26 74 36 85
17z m-1134 -1040 c0 -49 21 -71 65 -71 71 0 84 -26 39 -79 -28 -34 -55 -39
-74 -16 -15 19 -39 19 -63 0 -26 -19 -44 -9 -57 30 -9 28 -8 39 10 71 11 22
20 44 20 51 0 23 24 53 42 53 14 0 18 -8 18 -39z"/>
<path d="M10535 3231 c-11 -5 -31 -21 -45 -36 -23 -24 -25 -35 -26 -128 -1
-56 -7 -123 -13 -149 -6 -26 -8 -55 -5 -65 19 -59 31 -75 76 -104 48 -31 51
-32 133 -25 92 7 85 11 101 -64 4 -19 8 -120 8 -225 l1 -190 34 -59 c33 -57
34 -60 28 -145 -4 -80 -20 -139 -62 -226 -15 -32 -35 -141 -35 -191 0 -17 11
-45 25 -64 14 -19 25 -44 25 -57 0 -36 -27 -93 -55 -115 -19 -14 -25 -29 -25
-57 l0 -37 -85 -12 c-119 -17 -128 -23 -161 -99 -27 -64 -27 -67 -14 -132 8
-36 13 -89 11 -118 -1 -29 2 -61 8 -71 26 -49 113 -63 466 -78 149 -7 190 -2
360 37 22 5 77 12 122 15 81 6 81 6 185 -42 103 -48 103 -48 233 -53 143 -7
184 0 225 39 35 33 54 111 39 164 -7 24 -7 48 0 74 25 86 9 166 -36 183 -16 6
-41 17 -58 26 -16 8 -65 19 -109 23 -43 5 -79 10 -81 12 -2 2 2 30 7 63 6 35
7 130 4 228 -4 107 -3 197 4 246 10 67 9 92 -10 196 -23 128 -21 213 6 236 43
36 63 123 69 303 3 98 8 142 17 148 7 5 34 6 60 2 32 -4 67 0 105 11 81 23 85
26 108 71 17 34 20 58 20 181 -1 164 -5 173 -88 198 -86 26 -170 20 -243 -16
-55 -27 -70 -31 -106 -24 -58 10 -157 7 -191 -7 -45 -18 -101 4 -121 46 -9 19
-24 37 -34 40 -22 6 -155 15 -309 21 -120 5 -122 5 -153 -21 -42 -36 -93 -29
-132 18 l-28 32 -117 3 c-65 2 -127 -1 -138 -6z m391 -307 c93 -31 120 -93 85
-196 -12 -34 -21 -68 -21 -76 0 -22 -31 -41 -65 -42 l-30 0 3 103 c3 94 1 105
-20 137 -13 19 -33 36 -43 38 -33 6 -41 21 -19 37 25 19 50 19 110 -1z"/>
<path d="M3793 3135 c-12 -8 -50 -30 -84 -48 -52 -26 -66 -39 -78 -70 -19 -51
-7 -61 53 -46 51 13 106 65 106 100 0 12 11 30 25 41 43 34 23 54 -22 23z"/>
<path d="M158 3094 c-37 -19 -39 -50 -19 -243 14 -133 17 -191 9 -251 -13
-112 -8 -165 16 -165 13 0 22 10 27 28 4 15 16 35 27 45 11 9 30 43 41 75 26
72 18 113 -31 164 -29 30 -32 39 -32 96 -1 34 3 105 8 158 9 106 3 119 -46 93z"/>
<path d="M7176 2998 c-3 -13 -11 -72 -17 -133 -6 -60 -21 -180 -34 -265 -26
-171 -37 -321 -26 -360 13 -45 42 -31 62 29 43 125 51 196 43 386 -4 125 -3
197 5 237 10 47 10 62 -3 92 -18 42 -22 44 -30 14z"/>
<path d="M3376 2750 c-57 -61 -156 -258 -162 -322 -6 -60 13 -83 60 -74 48 9
64 43 72 151 6 72 12 93 36 130 16 24 40 51 54 60 32 21 47 60 34 86 -17 31
-44 22 -94 -31z"/>
<path d="M12274 2735 c-8 -56 -42 -99 -89 -115 -24 -8 -35 -18 -35 -30 0 -25
26 -38 92 -46 69 -8 78 1 103 100 17 70 18 80 4 104 -9 17 -25 28 -41 30 -25
3 -27 0 -34 -43z"/>
<path d="M6613 2719 c-8 -8 9 -51 62 -160 40 -82 81 -178 90 -214 10 -36 24
-65 31 -65 15 0 54 78 54 108 0 68 -100 244 -175 311 -39 34 -46 36 -62 20z"/>
<path d="M9776 2571 c-25 -20 -54 -31 -89 -36 -110 -15 -153 -50 -142 -114 4
-26 12 -41 21 -41 25 0 71 28 124 75 28 25 68 54 88 64 47 24 66 46 58 66 -8
21 -18 19 -60 -14z"/>
<path d="M7049 2079 c-6 -13 -9 -49 -7 -85 6 -99 48 -122 83 -48 26 55 30 100
11 129 -21 32 -70 35 -87 4z"/>
<path d="M11930 1794 c-11 -29 -16 -82 -26 -276 l-7 -126 33 -20 c18 -11 61
-26 97 -32 71 -14 83 -9 83 37 0 16 -10 27 -32 36 -18 8 -40 23 -49 33 -26 31
-42 121 -41 234 0 58 -1 113 -4 123 -8 26 -43 21 -54 -9z"/>
<path d="M1806 1475 c-3 -9 -6 -48 -6 -87 0 -39 -7 -101 -16 -138 -31 -126 -9
-147 163 -160 65 -5 128 -12 141 -16 51 -15 74 61 27 92 -23 15 -28 15 -70 -1
-43 -17 -47 -17 -90 0 -25 9 -52 27 -60 39 -13 20 -29 95 -42 208 -6 52 -36
92 -47 63z"/>
<path d="M6614 1233 c-30 -59 -67 -107 -157 -203 -65 -69 -135 -134 -155 -144
-20 -10 -50 -29 -65 -42 -15 -13 -43 -27 -62 -33 -46 -12 -88 -57 -75 -80 16
-32 40 -44 81 -43 71 3 103 24 157 104 60 89 84 111 142 136 53 22 100 83 100
127 0 19 13 45 38 74 53 63 62 83 62 135 0 68 -20 58 -66 -31z"/>
<path d="M76 1068 c-8 -31 -6 -147 3 -178 4 -14 2 -41 -4 -60 -7 -19 -15 -72
-19 -117 -12 -133 25 -187 132 -196 81 -7 82 8 2 91 -41 44 -61 74 -66 99 -6
32 8 194 23 263 10 47 6 80 -12 100 -24 27 -51 25 -59 -2z"/>
<path d="M10334 995 c-25 -38 -40 -270 -19 -301 38 -59 195 -71 304 -24 l54
24 -23 18 c-17 14 -40 18 -96 18 -82 0 -136 17 -153 49 -7 13 -9 51 -5 103 9
122 -21 176 -62 113z"/>
<path d="M8371 929 c-7 -34 -24 -92 -38 -130 -25 -69 -25 -69 -64 -69 -21 0
-41 -4 -44 -10 -3 -5 -22 -10 -41 -10 -48 0 -44 -24 9 -52 56 -29 139 -30 187
-2 28 16 35 27 37 54 2 19 11 74 20 122 16 82 16 90 0 123 -27 56 -51 47 -66
-26z"/>
<path d="M10030 802 c0 -97 -100 -190 -211 -197 -68 -4 -107 -21 -89 -38 7 -8
54 -12 138 -11 143 0 170 9 220 70 29 35 30 37 16 78 -7 22 -19 61 -26 86 -18
61 -48 69 -48 12z"/>
<path d="M4134 783 c-29 -6 -58 -39 -50 -58 3 -9 23 -23 43 -31 21 -8 63 -25
93 -38 61 -27 189 -52 214 -43 30 12 16 25 -50 43 -50 15 -71 27 -90 52 -30
38 -96 83 -121 81 -10 -1 -28 -4 -39 -6z"/>
<path d="M5953 670 c-33 -20 -50 -57 -39 -85 11 -29 138 -14 158 18 12 18 9
62 -4 75 -18 18 -79 14 -115 -8z"/>
<path d="M2553 269 c-18 -5 -35 -14 -38 -19 -4 -7 -89 -8 -249 -4 -133 4 -255
4 -269 0 -32 -8 -36 -35 -8 -60 18 -16 37 -17 193 -12 95 3 197 8 227 12 29 3
79 1 111 -5 76 -15 178 -23 335 -24 120 -2 131 0 155 20 39 34 17 44 -121 52
-90 6 -139 14 -177 30 -55 22 -106 25 -159 10z"/>
</g>
</svg>
