<?xml version="1.0" standalone="no"?>
<!DOCTYPE svg PUBLIC "-//W3C//DTD SVG 20010904//EN"
 "http://www.w3.org/TR/2001/REC-SVG-20010904/DTD/svg10.dtd">
<svg version="1.0" xmlns="http://www.w3.org/2000/svg"
 width="1280.000000pt" height="832.000000pt" viewBox="0 0 1280.000000 832.000000"
 preserveAspectRatio="xMidYMid meet">
<metadata>
Created by potrace 1.15, written by Peter Selinger 2001-2017
</metadata>
<g transform="translate(0.000000,832.000000) scale(0.100000,-0.100000)"
 fill="#ffff" stroke="none">
<path d="M5725 7521 c-579 -243 -640 -271 -643 -292 -2 -19 8 -30 45 -54 41
-25 48 -35 51 -65 2 -28 -3 -41 -28 -65 -36 -34 -39 -74 -9 -101 24 -21 23
-38 -1 -374 -5 -74 -14 -200 -19 -279 l-9 -144 32 -95 c18 -53 37 -97 42 -99
6 -2 25 41 44 96 37 110 36 78 10 431 -5 74 -14 204 -19 289 l-10 154 24 29
c32 38 31 54 -5 88 -21 20 -30 37 -30 60 0 17 3 30 8 28 4 -1 54 -30 110 -62
98 -56 133 -90 117 -116 -10 -16 -24 -315 -16 -323 4 -4 -2 -49 -14 -100 -25
-104 -65 -346 -65 -393 0 -20 -9 -39 -26 -55 -43 -40 -54 -81 -54 -202 0 -180
60 -352 143 -406 28 -18 42 -40 67 -101 123 -305 377 -603 615 -723 163 -82
357 -91 528 -25 259 100 536 406 672 743 19 47 43 83 71 110 82 78 135 232
137 394 1 107 -13 162 -50 203 -22 23 -24 33 -21 80 7 86 -10 270 -33 365 -12
48 -38 126 -60 173 -44 97 -70 254 -46 276 6 7 93 58 192 114 99 57 189 111
200 121 30 29 11 48 -101 96 -363 156 -1163 486 -1184 488 -16 3 -262 -96
-665 -264z m320 -1177 c28 -8 109 -24 180 -34 72 -11 136 -22 143 -25 7 -3 77
11 155 31 135 34 146 36 225 26 65 -8 103 -19 179 -56 53 -26 98 -44 101 -41
3 3 0 16 -6 30 -14 31 -16 65 -3 65 17 0 77 -78 110 -145 18 -36 46 -102 61
-148 16 -45 32 -82 37 -83 4 -1 20 -5 34 -8 39 -8 54 -55 52 -156 -2 -141 -59
-265 -124 -272 -28 -3 -33 -9 -66 -92 -133 -332 -373 -587 -613 -651 -70 -19
-201 -19 -262 -1 -83 26 -192 85 -265 146 -138 114 -281 324 -359 528 -25 64
-31 72 -54 72 -72 0 -135 156 -124 302 7 98 24 131 61 126 24 -3 27 2 44 59
49 173 144 289 272 329 57 17 162 17 222 -2z"/>
<path d="M2595 6760 c-60 -26 -275 -116 -477 -200 -219 -91 -368 -158 -368
-166 0 -7 12 -21 26 -31 14 -10 33 -25 42 -33 10 -8 22 -15 27 -15 17 0 164
-88 169 -101 3 -7 0 -58 -6 -115 -5 -56 -8 -118 -5 -138 2 -20 -2 -65 -10
-101 -21 -94 -43 -229 -43 -271 0 -25 -7 -43 -25 -59 -78 -73 -39 -366 61
-448 20 -17 48 -62 77 -123 160 -345 408 -552 660 -551 156 1 296 70 433 213
95 100 152 182 218 319 31 63 74 134 96 158 90 98 117 339 48 432 -14 20 -19
37 -15 57 8 40 -9 217 -28 288 -9 33 -29 89 -45 125 -16 36 -31 93 -35 127
l-6 63 53 33 c29 19 99 60 156 91 109 62 124 83 75 105 -16 7 -104 45 -198 83
-93 39 -215 89 -270 113 -237 101 -472 195 -486 194 -7 0 -63 -22 -124 -49z
m-10 -1049 c128 -24 162 -23 265 4 99 26 190 17 284 -28 75 -36 86 -35 65 5
-6 12 -7 24 -2 29 23 23 102 -106 139 -223 14 -48 22 -58 40 -58 38 0 49 -26
49 -114 -1 -103 -36 -189 -85 -210 -26 -10 -38 -28 -70 -100 -112 -252 -300
-432 -487 -466 -234 -41 -483 163 -630 518 -13 30 -26 51 -31 48 -15 -9 -52
24 -73 67 -15 28 -23 66 -26 122 -5 88 8 128 43 133 15 2 25 17 38 60 33 106
91 181 171 222 50 25 137 23 310 -9z"/>
<path d="M9865 6730 c-77 -33 -291 -122 -475 -198 -278 -116 -336 -143 -338
-161 -3 -15 6 -25 32 -38 30 -14 36 -22 36 -48 0 -18 -8 -37 -20 -48 -24 -20
-26 -54 -4 -78 14 -15 14 -36 4 -181 -6 -89 -15 -217 -21 -284 -10 -118 -10
-122 17 -204 29 -91 30 -91 64 9 21 64 21 64 6 295 -9 127 -19 258 -22 292 -4
48 -2 63 10 73 23 19 20 68 -4 81 -18 10 -30 60 -14 60 4 0 44 -21 90 -47 l84
-48 -1 -45 c0 -25 -4 -85 -8 -135 -4 -49 -4 -95 0 -101 5 -5 2 -31 -6 -57 -13
-44 -21 -91 -47 -267 -6 -48 -17 -81 -28 -92 -32 -30 -43 -85 -37 -182 7 -118
36 -198 91 -252 23 -22 50 -60 60 -85 57 -144 182 -327 294 -429 209 -192 443
-223 669 -89 73 44 206 175 267 263 45 66 117 200 150 279 8 20 19 37 25 37
18 0 61 66 81 123 47 132 46 271 -1 330 -16 21 -19 41 -19 115 0 136 -35 292
-84 382 -8 14 -17 59 -21 102 -7 73 -6 77 16 88 13 7 82 47 153 88 118 70 148
94 133 108 -3 3 -92 42 -199 86 -248 103 -514 214 -653 272 -60 25 -117 46
-125 45 -8 0 -78 -27 -155 -59z m-92 -1019 c14 -5 77 -17 142 -27 116 -16 117
-16 210 6 126 30 206 26 299 -18 37 -17 70 -32 73 -32 2 0 1 17 -3 37 l-7 37
24 -15 c34 -23 85 -111 115 -201 23 -69 28 -78 50 -78 19 0 29 -8 40 -35 19
-46 18 -87 -5 -169 -19 -70 -52 -115 -86 -120 -13 -2 -28 -25 -46 -69 -83
-205 -226 -380 -372 -454 -201 -101 -419 -31 -597 193 -54 68 -141 224 -167
300 -8 23 -19 33 -41 37 -46 9 -76 79 -80 188 -4 97 6 129 42 129 20 0 25 7
31 38 3 20 17 60 29 87 52 114 141 175 257 175 37 0 79 -4 92 -9z"/>
<path d="M1803 6257 c-27 -27 -28 -40 -6 -78 15 -26 16 -43 4 -206 -26 -352
-26 -393 -1 -464 12 -35 24 -67 27 -72 3 -6 17 26 31 69 l26 79 -13 180 c-24
343 -25 391 -7 416 22 31 20 43 -8 73 -28 31 -25 31 -53 3z"/>
<path d="M5499 4556 c-3 -3 -97 -12 -209 -21 -407 -31 -570 -91 -745 -276 -88
-93 -150 -186 -218 -327 l-54 -111 -31 77 c-38 94 -115 219 -177 289 -49 56
-155 130 -222 156 -70 27 -180 47 -323 58 -74 5 -154 13 -176 18 -41 8 -42 8
-58 -30 -21 -48 -64 -84 -144 -122 -239 -112 -645 -112 -884 0 -80 38 -123 74
-144 122 -16 36 -19 38 -48 31 -17 -5 -98 -13 -181 -19 -244 -18 -364 -55
-483 -151 -114 -93 -227 -279 -292 -479 l-32 -101 -151 0 c-134 0 -156 -2
-195 -21 -58 -29 -102 -96 -102 -156 0 -24 88 -457 195 -961 107 -505 195
-925 195 -933 0 -62 53 -144 114 -177 29 -16 139 -17 1441 -22 l1410 -5 3 -22
3 -23 -1491 0 -1491 0 -24 -25 c-34 -33 -34 -87 0 -120 l24 -25 1509 0 1510 0
5 -22 c14 -57 76 -357 81 -397 12 -83 63 -155 138 -197 l53 -29 2020 -3 c2277
-3 2087 -9 2174 76 60 58 68 81 122 352 l44 215 1513 5 1514 5 24 28 c32 38
31 72 -5 108 l-29 29 -1486 0 -1486 0 0 25 0 25 1393 0 c936 0 1404 4 1430 11
51 14 112 74 126 124 20 73 411 1932 411 1954 0 31 -27 92 -53 119 -49 53 -84
62 -249 62 l-153 0 -28 93 c-106 343 -305 561 -558 611 -57 12 -380 46 -430
46 -4 0 -10 -11 -13 -24 -10 -42 -100 -112 -184 -144 -130 -50 -228 -66 -407
-66 -179 0 -277 16 -407 66 -85 32 -174 102 -184 145 -6 23 -10 24 -53 19 -25
-4 -105 -11 -177 -16 -274 -20 -389 -62 -520 -194 -86 -86 -153 -189 -202
-308 -15 -37 -29 -68 -32 -68 -3 0 -25 44 -50 97 -108 233 -265 410 -443 500
-123 61 -261 89 -572 113 -77 6 -156 13 -176 16 -34 6 -36 4 -42 -23 -10 -51
-80 -117 -174 -166 -91 -46 -177 -74 -323 -104 -119 -24 -457 -24 -586 0 -260
48 -455 151 -496 262 -8 25 -18 35 -33 35 -12 0 -24 -2 -26 -4z m-1293 -932
c-3 -9 -9 -27 -12 -40 l-6 -24 -193 0 c-208 0 -248 -7 -312 -56 -40 -30 -89
-114 -98 -164 -5 -27 45 -279 189 -958 108 -507 196 -929 196 -937 0 -13 -155
-15 -1368 -15 -1530 0 -1439 -4 -1505 69 -22 24 -39 55 -43 78 -3 21 -96 447
-205 946 -110 500 -199 922 -199 938 0 37 30 96 63 127 57 53 -28 51 1801 52
1549 0 1698 -1 1692 -16z m7709 5 c53 -15 110 -73 125 -128 11 -41 -1 -99
-190 -970 -111 -509 -206 -943 -211 -963 -11 -43 -59 -95 -106 -114 -27 -12
-275 -14 -1423 -14 -1320 0 -1391 1 -1386 18 25 81 388 1827 388 1860 -3 89
-65 175 -157 218 -47 22 -61 24 -250 24 l-201 0 -11 40 -10 40 1696 0 c1207 0
1707 -3 1736 -11z m-2992 -131 c79 -36 129 -92 153 -174 l14 -50 -155 -710
c-287 -1306 -366 -1668 -380 -1747 -15 -84 -38 -130 -89 -175 -77 -68 93 -63
-2136 -60 l-2015 3 -53 34 c-60 38 -107 109 -117 175 -4 23 -126 587 -272
1255 -215 987 -264 1222 -258 1257 13 92 106 184 205 203 25 5 1145 8 2555 7
2352 -1 2512 -2 2548 -18z"/>
<path d="M6085 3455 c-146 -27 -308 -90 -431 -166 l-33 -20 45 -64 c25 -36 47
-65 48 -65 1 0 38 20 80 44 88 50 236 100 343 116 220 32 461 -15 644 -126 31
-19 59 -34 62 -34 8 0 87 116 87 128 0 11 -177 104 -250 131 -171 63 -425 87
-595 56z"/>
<path d="M6165 3200 c-88 -14 -161 -37 -250 -80 -126 -59 -123 -55 -74 -125
23 -33 43 -61 44 -62 1 -2 37 15 81 37 211 107 447 107 658 0 44 -22 81 -39
82 -37 1 1 20 29 43 62 39 56 41 60 24 74 -38 29 -186 93 -260 112 -90 23
-261 32 -348 19z"/>
<path d="M6140 2945 c-300 -53 -568 -268 -679 -547 -57 -142 -66 -190 -65
-348 1 -171 20 -255 88 -395 105 -217 284 -380 509 -460 501 -179 1039 102
1189 620 32 111 31 340 -1 460 -125 465 -571 752 -1041 670z m349 -196 c249
-66 441 -259 512 -515 26 -94 31 -259 10 -344 -84 -335 -373 -563 -712 -562
-335 0 -617 220 -699 546 -24 96 -26 252 -5 343 30 127 111 269 201 353 194
181 443 245 693 179z"/>
<path d="M5664 2182 c-10 -6 -18 -119 -15 -224 0 -24 -4 -38 -12 -38 -9 0 -9
-2 1 -8 7 -5 14 -22 15 -38 l2 -29 130 -3 c72 -1 144 -5 162 -7 25 -5 33 -2
38 14 11 34 -12 63 -48 60 -18 -1 -50 -1 -72 0 -32 2 -36 4 -20 11 17 7 17 9
3 9 -10 1 -18 9 -19 19 -1 11 -4 9 -10 -8 -5 -15 -6 23 -3 96 l6 120 -26 17
c-26 17 -111 23 -132 9z"/>
<path d="M6085 2156 c-16 -7 -36 -11 -42 -9 -7 3 -13 0 -13 -7 0 -6 4 -9 9 -6
5 3 11 -1 14 -9 4 -9 1 -12 -7 -9 -8 3 -17 0 -21 -5 -3 -6 -10 -9 -15 -6 -11
7 -33 -22 -27 -37 3 -8 9 -4 16 12 11 24 11 24 4 -5 -18 -77 15 -160 70 -172
15 -3 30 -10 34 -16 4 -7 -1 -8 -13 -3 -10 4 -15 4 -11 0 4 -4 41 -9 83 -11
62 -3 84 0 120 18 61 29 78 58 78 131 1 58 -1 62 -37 93 -59 51 -174 71 -242
41z m160 -56 c14 -12 16 -25 10 -79 -4 -35 -9 -70 -12 -78 -7 -18 -103 -17
-128 1 -17 12 -18 18 -6 85 8 45 19 75 29 81 23 13 86 7 107 -10z"/>
<path d="M6449 2169 c-1 -2 -7 -60 -13 -128 -13 -146 -10 -154 62 -149 l47 3
7 44 c4 25 12 49 18 55 12 12 10 14 67 -68 27 -37 38 -46 63 -46 33 0 38 11
15 30 -8 7 -15 16 -15 21 0 4 -14 29 -32 55 -36 54 -34 63 32 109 52 37 55 49
11 53 -24 3 -40 -3 -60 -21 -14 -13 -40 -34 -58 -45 l-31 -22 1 47 c2 47 1 48
-28 49 -16 1 -42 4 -57 9 -16 4 -29 6 -29 4z"/>
<path d="M6790 2137 c0 -16 7 -26 21 -30 18 -5 20 -12 18 -74 -2 -78 -6 -93
-24 -93 -12 0 -25 -29 -25 -57 0 -7 8 -13 18 -12 10 0 12 3 5 6 -34 13 -5 18
75 12 48 -4 90 -5 95 -2 15 9 6 45 -13 50 -11 3 -20 10 -20 15 0 5 9 7 20 3
15 -5 18 -3 14 9 -3 9 -10 14 -14 11 -10 -6 -19 53 -13 92 3 20 12 33 24 36
18 5 28 46 12 47 -5 1 -50 3 -100 6 l-93 6 0 -25z"/>
<path d="M7445 2629 c-33 -23 -62 -43 -65 -46 -2 -2 4 -16 13 -31 200 -311
217 -694 47 -1025 -22 -44 -40 -81 -40 -83 0 -2 28 -21 62 -43 45 -29 66 -37
75 -29 7 5 35 56 62 111 162 333 160 705 -6 1043 -24 50 -54 103 -66 118 l-22
27 -60 -42z"/>
<path d="M4996 2588 c-166 -298 -198 -637 -89 -958 26 -78 100 -227 132 -269
l18 -24 62 43 c33 24 61 47 61 52 0 6 -8 22 -19 36 -55 79 -120 248 -142 372
-16 90 -13 280 5 366 19 90 67 221 106 290 16 30 30 58 30 63 0 7 -16 19 -102
75 l-26 17 -36 -63z"/>
<path d="M7235 2479 c-22 -17 -49 -37 -60 -45 -19 -14 -19 -15 -2 -42 142
-217 165 -489 61 -711 -18 -40 -34 -74 -34 -76 0 -5 121 -75 130 -75 16 0 78
141 102 230 19 71 23 108 22 225 -1 155 -18 239 -72 357 -30 66 -92 168 -102
168 -3 0 -23 -14 -45 -31z"/>
<path d="M5207 2402 c-60 -132 -80 -227 -80 -377 1 -99 6 -149 22 -210 19 -74
101 -255 136 -299 14 -19 15 -18 52 8 92 64 90 62 70 93 -39 62 -76 143 -98
213 -19 61 -23 97 -23 195 0 133 15 207 66 313 16 35 28 65 26 67 -14 13 -119
75 -126 75 -5 0 -25 -35 -45 -78z"/>
<path d="M5823 1108 l-43 -62 48 -30 c126 -79 254 -116 428 -123 94 -4 139 -2
200 12 101 22 215 66 282 108 l52 33 -42 62 c-24 34 -46 62 -51 62 -4 0 -24
-11 -45 -23 -50 -32 -157 -74 -223 -88 -32 -7 -101 -10 -174 -7 -133 6 -239
34 -328 89 -26 16 -51 29 -55 29 -4 0 -26 -28 -49 -62z"/>
<path d="M6865 943 c-43 -34 -224 -113 -305 -133 -245 -61 -534 -22 -744 100
-38 22 -71 40 -75 40 -4 0 -26 -28 -50 -62 l-43 -62 24 -19 c70 -58 291 -147
427 -173 101 -20 323 -19 426 0 138 27 304 91 407 157 l47 31 -46 69 c-25 38
-46 69 -47 69 -1 0 -10 -8 -21 -17z"/>
</g>
</svg>
